<?xml version="1.0" encoding="UTF-8" standalone="no"?>
<svg
   version="1.1"
   width="400"
   height="400"
   id="svg7"
   sodipodi:docname="Storeframe S svg.svg"
   inkscape:version="1.4.2 (f4327f4, 2025-05-13)"
   xmlns:inkscape="http://www.inkscape.org/namespaces/inkscape"
   xmlns:sodipodi="http://sodipodi.sourceforge.net/DTD/sodipodi-0.dtd"
   xmlns="http://www.w3.org/2000/svg"
   xmlns:svg="http://www.w3.org/2000/svg">
  <defs
     id="defs7" />
  <sodipodi:namedview
     id="namedview7"
     pagecolor="#ffffff"
     bordercolor="#000000"
     borderopacity="0.25"
     inkscape:showpageshadow="2"
     inkscape:pageopacity="0.0"
     inkscape:pagecheckerboard="0"
     inkscape:deskcolor="#d1d1d1"
     inkscape:zoom="2.8284271"
     inkscape:cx="145.84077"
     inkscape:cy="136.64838"
     inkscape:window-width="2560"
     inkscape:window-height="1361"
     inkscape:window-x="-9"
     inkscape:window-y="-9"
     inkscape:window-maximized="1"
     inkscape:current-layer="svg7" />
  <path
     d="m -52.759231,139.37004 c 9.087356,6.42326 18.162145,7.28726 28.996094,7.3086 2.357424,0.0252 4.714846,0.0506 7.072266,0.0762 3.672437,0.0286 7.3448338,0.0526 11.0173335,0.0715 35.0943175,0.21566 65.5701775,7.58227 91.2971195,32.88745 21.264338,22.82028 31.293528,52.63984 30.402348,83.82813 -87.164809,13.91867 -91.155014,4.88417 -93.182866,-8.16846 -1.279549,-6.38063 -4.62199,-10.40691 -9.43042,-14.64404 -6.6160589,-4.14099 -12.67364451,-4.78255 -20.2773436,-4.73047 -1.9746108,-0.0174 -3.9492204,-0.035 -5.9238284,-0.0527 -3.057569,-0.01 -6.115023,-0.0137 -9.172607,-0.012 -37.845287,-0.0463 -68.989947,-10.84015 -96.102785,-37.86108 -21.42633,-22.68671 -31.88607,-53.41449 -31.04687,-84.32031 2.21552,-43.720647 45.10153,-19.680571 96.351559,25.61718 z"
     fill="#0e7078"
     id="path1"
     transform="translate(220.75923,16.629955)"
     sodipodi:nodetypes="cccccccccccccc" />
  <path
     d="M0 0 C4.18559732 0.01149217 8.37118532 0.00719444 12.55679393 0.00525308 C19.56029907 0.00437728 26.56370607 0.01531303 33.56718516 0.03386331 C41.65416263 0.05516119 49.7409981 0.05850682 57.82799798 0.05230135 C65.64913943 0.04660879 73.47023113 0.05224304 81.29136539 0.06347489 C84.60584444 0.06810799 87.92029295 0.06900054 91.23477435 0.06688905 C95.12479741 0.06500564 99.01467567 0.07311383 102.90466571 0.08894944 C104.32969128 0.09318757 105.75473155 0.09404601 107.17976069 0.09125924 C109.12552364 0.08803108 111.07129496 0.09835586 113.01702952 0.10934854 C114.10474682 0.11140141 115.19246411 0.11345428 116.31314254 0.11556935 C119.32022678 0.37695157 121.51794973 1.10124607 124.24076915 2.37004495 C124.44616949 8.12125439 123.91570171 12.87616219 122.24076915 18.37004495 C121.91181651 19.46155862 121.91181651 19.46155862 121.57621837 20.57512307 C117.86735814 32.2639579 112.38147809 43.15086602 104.24076915 52.37004495 C103.5756129 53.17699807 102.91045665 53.9839512 102.22514415 54.81535745 C85.4984853 74.49024034 61.45266695 84.49784332 36.24076915 87.37004495 C31.37560112 87.61043447 26.52303074 87.66881018 21.65262866 87.6750052 C19.29213382 87.67873657 16.93203454 87.69563846 14.57162547 87.71576333 C7.87116445 87.77056463 1.17065083 87.80186657 -5.52998281 87.82634377 C-9.65592737 87.84230913 -13.78158026 87.87260321 -17.90737271 87.91110826 C-19.46487556 87.92266012 -21.02243064 87.92868774 -22.57997632 87.92878938 C-34.93519644 87.92988924 -46.09118828 88.84811832 -55.75923085 97.37004495 C-62.5646516 105.3704218 -64.13150813 113.09105559 -63.75923085 123.37004495 C-78.91680907 131.99935928 -103.5708901 130.07810561 -119.9350121 126.48723245 C-129.60594569 123.66201589 -138.37457963 119.95981243 -146.75923085 114.37004495 C-147.08923085 119.32004495 -147.41923085 124.27004495 -147.75923085 129.37004495 C-148.08923085 129.37004495 -148.41923085 129.37004495 -148.75923085 129.37004495 C-150.03858124 94.29452185 -140.05397823 63.6930155 -116.05244374 37.73723245 C-84.16842075 4.27359361 -43.69426329 -0.14842803 0 0 Z "
     fill="#032A3F"
     transform="translate(220.75923085212708,16.629955053329468)"
     id="path3" />
  <path
     d="m 0,0 c 3.6734014,3.2397928 5.803865,6.9099509 7.9375,11.25 l 1.0515137,2.13501 C 20.497622,37.464518 21.573688,62.245236 16,88.21875 L 13.679688,87.382812 C -7.1201416,77.508554 -29.00428,69.906244 -51.791748,66.376465 c -3.097239,-0.52802 -6.144625,-1.24318 -9.206543,-1.943848 -2.3466,-0.507156 -4.674854,-0.830059 -7.064209,-1.057617 L -72,63 l -1,4 -0.296875,-2.160156 C -74.671662,56.034094 -77.383055,50.93305 -83,44 l 2.787842,-1.034668 C -36.799323,27.175453 -36.799323,27.175453 0,0 Z"
     fill="#128d90"
     id="path4"
     sodipodi:nodetypes="cccccccscccccc"
     transform="translate(318,213)" />
  <path
     d="M -0.14915534,-0.20439805 C 4.2858565,0.24553068 7.8726796,1.720588 11.875,3.625 18.409005,6.5763986 25.122143,8.6854391 32,10.6875 l 2.944824,0.86377 c 14.600228,4.162804 29.27113,6.422944 44.292481,8.326416 2.395851,0.305747 4.790193,0.62167 7.18457,0.93872 l 2.221863,0.271622 c 5.129913,0.685623 5.378505,1.425875 7.604854,3.652224 l -2.737983,0.606599 C 83.183976,29.376139 77.709841,32.504245 72.945312,42.632812 71.342992,46.645234 70.880588,49.924709 70.9375,54.25 L 70.96484,56.953125 71,59 C 55.842422,67.629314 31.188341,65.708061 14.824219,62.117187 5.1532852,59.291971 -14.263786,52.386642 -14.398437,48.671875 L -13.9375,43.3125 c 0,0 1.964026,-22.3251 12.9375,-42.3125 z"
     fill="#084958"
     id="path5"
     sodipodi:nodetypes="cccccccccccccccccc"
     transform="translate(86,81)" />
  <path
     d="m -1.40625,-0.375 4.625,2.0195312 C 4.6457228,2.3674056 6.0728125,3.0900496 7.5,3.8125 L 9.609375,4.8925781 C 31.442844,15.910394 56.455276,16.82581 80,11 L 82.421875,10.402344 84,10 84.777344,11.90625 C 88.429602,20.071567 93.732926,26.25076 102,30 99.11316,36.79428 92.263748,39.622961 85.766846,42.408203 61.402937,52.123331 30.355216,52.300191 5.4861359,44.486136 l -4,-13.967068 -1.0408234,-4.409693 C -0.10887335,23.484284 -0.48692645,21.073423 -0.97265625,18.203125 -1.4152818,10.020852 -1.6069676,5.7134616 -1.40625,-0.375 Z"
     fill="#0b5d69"
     transform="translate(73,130)"
     id="path6"
     sodipodi:nodetypes="ccccccccccccccc" />
  <path
     d="m -1.5,-0.125 c 6.5421342,-0.17770385 13.968521,0.52188603 20.375,1.8125 l 2.772461,0.5500488 C 44.551741,6.8923279 67.486563,13.587337 88,25 87.492099,30.792643 86.344571,35.411195 83.9375,40.6875 l -0.924561,2.072998 C 79.400071,50.639052 74.801409,57.797887 70,65 64.335353,71.989403 54.544464,91.501 9.0383979,104.45736 c -12.3637532,3.29137 -24.5535639,3.978 -37.2764349,3.91495 -1.752937,0.002 -3.505873,0.006 -5.258804,0.0111 -4.701534,0.009 -9.402855,8e-5 -14.104371,-0.0133 -4.937093,-0.0114 -9.874177,-0.007 -14.811279,-0.005 -8.270008,8.8e-4 -16.539934,-0.0101 -24.809921,-0.0286 -9.565528,-0.0213 -19.130938,-0.0246 -28.696478,-0.0184 -9.22166,0.006 -18.44327,7e-5 -27.66491,-0.0112 -3.91984,-0.005 -7.83964,-0.006 -11.75948,-0.003 -4.60073,0.002 -9.20133,-0.006 -13.80204,-0.0221 -1.69074,-0.004 -3.38149,-0.005 -5.07224,-0.002 -2.29972,0.003 -4.59907,-0.006 -6.89876,-0.0181 l -3.90518,-0.006 C -188,108 -188,108 -190,106 c 0.78876,-23.268542 13.64838,-48.061962 29,-65 l 2.67578,-2.960938 c 17.88657,-19.131169 43.12143,-31.857579 69.485734,-33.1445784 2.336399,-0.055534 4.671409,-0.083258 7.008408,-0.099806 l 2.663605,-0.029999 c 2.878381,-0.031352 5.756779,-0.056267 8.635223,-0.081085 2.006392,-0.020592 4.012781,-0.041589 6.019165,-0.062973 5.260627,-0.054986 10.521291,-0.1044979 15.781982,-0.1528473 5.376214,-0.050387 10.752374,-0.1059831 16.128541,-0.1611328 C -22.067755,4.1993468 -11.5339,4.0978388 -1,4 Z"
     fill="#18b5b0"
     transform="translate(246,276)"
     id="path2"
     sodipodi:nodetypes="cccccccccccccccccccccccccccccccc" />
  <path
     d="m 0.640625,-0.75 c 2.6580794,3.818185 5.1621188,7.6602722 7.296875,12 l 1.0493164,2.119629 c 5.5674456,11.604247 8.6869526,23.35064 9.8772976,36.484087 L 18,50 15.054688,50.121094 C 10.574186,50.119967 6.4572309,49.125331 2.125,48.0625 c -25.880148,-6.281374 -85.159081,-0.968166 -79.4375,4 l -6.757812,-7.859375 2.592529,-2.847168 C -62.439948,21.441078 -36.158698,26.425453 0.640625,-0.75 Z"
     fill="#108185"
     id="path7"
     transform="translate(318,213)"
     sodipodi:nodetypes="ccccccccccc" />
</svg>
